<svg width="50" height="50" viewBox="0 0 50 50" fill="none" xmlns="http://www.w3.org/2000/svg">
<path fill-rule="evenodd" clip-rule="evenodd" d="M6.44707 6.44755C9.22721 3.66741 13.3874 2.60449 18.7498 2.60449H22.9165C23.7794 2.60449 24.479 3.30405 24.479 4.16699C24.479 5.02994 23.7794 5.72949 22.9165 5.72949H18.7498C13.6956 5.72949 10.5641 6.74991 8.65677 8.65726C6.74942 10.5646 5.729 13.6961 5.729 18.7503V31.2503C5.729 36.3045 6.74942 39.436 8.65677 41.3434C10.5641 43.2507 13.6956 44.2712 18.7498 44.2712H31.2498C36.3041 44.2712 39.4355 43.2507 41.3429 41.3434C43.2503 39.436 44.2707 36.3045 44.2707 31.2503V27.0837C44.2707 26.2207 44.9702 25.5212 45.8332 25.5212C46.6961 25.5212 47.3957 26.2207 47.3957 27.0837V31.2503C47.3957 36.6128 46.3328 40.773 43.5526 43.5531C40.7725 46.3332 36.6123 47.3962 31.2498 47.3962H18.7498C13.3874 47.3962 9.22721 46.3332 6.44707 43.5531C3.66692 40.773 2.604 36.6128 2.604 31.2503V18.7503C2.604 13.3879 3.66692 9.2277 6.44707 6.44755Z" fill="#292D32"/>
<path fill-rule="evenodd" clip-rule="evenodd" d="M37.9097 2.11175C40.2292 1.88407 42.5288 2.90269 44.8131 5.18692C47.0973 7.47115 48.1159 9.77077 47.8882 12.0902C47.6686 14.3278 46.3192 16.1822 44.8131 17.6883L28.3783 34.1231C27.9091 34.5771 27.2959 34.9738 26.7042 35.2712C26.1159 35.5668 25.4231 35.8275 24.7625 35.9219L18.4837 36.8189C16.9377 37.0316 15.4585 36.6095 14.4207 35.576C13.3807 34.5401 12.9553 33.0604 13.1827 31.5055C13.1828 31.5044 13.183 31.5034 13.1831 31.5023L14.0774 25.2425C14.0775 25.2416 14.0776 25.2407 14.0778 25.2397C14.1716 24.5705 14.431 23.8727 14.7288 23.2802C15.0272 22.6865 15.429 22.0696 15.895 21.6036L32.3117 5.18692C33.8178 3.68082 35.6722 2.33138 37.9097 2.11175ZM38.215 5.2218C37.0567 5.3355 35.8486 6.0694 34.5214 7.39663L18.1047 23.8133C17.9457 23.9723 17.7225 24.2825 17.521 24.6836C17.3192 25.0851 17.2039 25.4486 17.1724 25.6744L17.1717 25.6794L16.2758 31.9502L16.275 31.9562C16.1701 32.671 16.3802 33.117 16.6259 33.3618C16.8742 33.609 17.3313 33.822 18.054 33.7235C18.0552 33.7234 18.0565 33.7232 18.0577 33.723L24.3206 32.8283C24.535 32.7977 24.8942 32.6834 25.3008 32.479C25.6982 32.2793 26.0191 32.0547 26.1974 31.8846L42.6034 15.4786C43.9306 14.1514 44.6645 12.9433 44.7782 11.785C44.8838 10.7086 44.4858 9.27906 42.6034 7.39663C40.7209 5.51419 39.2914 5.11615 38.215 5.2218Z" fill="#292D32"/>
<path fill-rule="evenodd" clip-rule="evenodd" d="M30.6406 7.14141C31.4716 6.90847 32.334 7.39323 32.5669 8.22414C33.8151 12.6765 37.3001 16.1649 41.78 17.4343C42.6103 17.6695 43.0926 18.5333 42.8574 19.3635C42.6222 20.1938 41.7584 20.6761 40.9281 20.4409C35.4081 18.8769 31.1014 14.5737 29.5579 9.06767C29.325 8.23676 29.8097 7.37434 30.6406 7.14141Z" fill="#292D32"/>
</svg>
