<svg width="50" height="50" viewBox="0 0 50 50" fill="none" xmlns="http://www.w3.org/2000/svg">
<path fill-rule="evenodd" clip-rule="evenodd" d="M18.8092 39.6128C18.9705 38.9009 19.6031 38.3955 20.3331 38.3955H29.7081C30.438 38.3955 31.0707 38.9009 31.232 39.6128L32.0893 43.3975C32.3813 44.744 32.025 46.0534 31.1431 47.0094C30.277 47.9484 29.0121 48.4371 27.6456 48.4371H22.3956C19.7799 48.4371 17.3018 46.2245 17.9557 43.3808L18.8092 39.6128ZM21.5812 41.5205L21.0028 44.0739L21.0014 44.0801C20.9438 44.3297 21.007 44.5985 21.2385 44.8478C21.4767 45.1043 21.8809 45.3121 22.3956 45.3121H27.6456C28.2791 45.3121 28.66 45.0924 28.846 44.8907C29.0154 44.7071 29.1172 44.4452 29.0365 44.0656L28.46 41.5205H21.5812Z" fill="#292D32"/>
<path fill-rule="evenodd" clip-rule="evenodd" d="M25.0309 20.7759C26.436 20.7759 27.7513 21.455 28.6839 22.6353L35.0359 30.6949C35.0365 30.6957 35.0371 30.6965 35.0378 30.6973C35.8975 31.7808 36.6082 33.0115 36.4774 34.4274C36.3472 35.8358 35.4285 36.9405 34.3503 37.8967C34.3498 37.8972 34.3492 37.8977 34.3487 37.8981L30.7468 41.1045C30.1023 41.6782 29.1146 41.6209 28.5409 40.9763C27.9671 40.3318 28.0245 39.3441 28.669 38.7703L32.2732 35.5619L32.2755 35.5598C33.2175 34.7247 33.35 34.3089 33.3656 34.1398C33.3805 33.9786 33.3319 33.5746 32.5883 32.6378L32.5849 32.6335L26.2319 24.5727C26.2318 24.5725 26.2321 24.5729 26.2319 24.5727C25.8313 24.066 25.3859 23.9009 25.0309 23.9009C24.6758 23.9009 24.2309 24.0654 23.8302 24.5721C23.8301 24.5723 23.8304 24.572 23.8302 24.5721L17.4734 32.6378C16.7224 33.584 16.653 34.01 16.6667 34.1849C16.6781 34.3308 16.7851 34.7358 17.7416 35.5218C17.7575 35.5349 17.7731 35.5482 17.7885 35.5619L21.3927 38.7703C22.0373 39.3441 22.0946 40.3318 21.5209 40.9763C20.9471 41.6209 19.9594 41.6782 19.3149 41.1045L15.733 37.9159C14.5964 36.977 13.664 35.8668 13.5513 34.4292C13.4401 33.0113 14.1717 31.7713 15.024 30.6971C15.0246 30.6964 15.0252 30.6956 15.0258 30.6949L21.3766 22.6368C22.3092 21.4565 23.6257 20.7759 25.0309 20.7759Z" fill="#292D32"/>
<path fill-rule="evenodd" clip-rule="evenodd" d="M25.0205 21.604C25.8835 21.604 26.583 22.3036 26.583 23.1665V28.4374C26.583 29.3003 25.8835 29.9999 25.0205 29.9999C24.1576 29.9999 23.458 29.3003 23.458 28.4374V23.1665C23.458 22.3036 24.1576 21.604 25.0205 21.604Z" fill="#292D32"/>
<path fill-rule="evenodd" clip-rule="evenodd" d="M23.9998 5.729C23.7169 5.729 23.479 5.96695 23.479 6.24984V8.33317C23.479 8.61606 23.7169 8.854 23.9998 8.854H26.0832C26.3661 8.854 26.604 8.61606 26.604 8.33317V6.24984C26.604 5.96695 26.3661 5.729 26.0832 5.729H23.9998ZM20.354 6.24984C20.354 4.24106 21.9911 2.604 23.9998 2.604H26.0832C28.0919 2.604 29.729 4.24106 29.729 6.24984V8.33317C29.729 10.3419 28.0919 11.979 26.0832 11.979H23.9998C21.9911 11.979 20.354 10.3419 20.354 8.33317V6.24984Z" fill="#292D32"/>
<path fill-rule="evenodd" clip-rule="evenodd" d="M3.1665 25.354C3.1665 23.3453 4.80343 21.708 6.81234 21.708H8.89567C10.9046 21.708 12.5415 23.3453 12.5415 25.354V27.4373C12.5415 29.4461 10.9044 31.0831 8.89567 31.0831H6.81234C4.80356 31.0831 3.1665 29.4461 3.1665 27.4373V25.354ZM6.81234 24.833C6.52957 24.833 6.2915 25.071 6.2915 25.354V27.4373C6.2915 27.7202 6.52945 27.9581 6.81234 27.9581H8.89567C9.17856 27.9581 9.4165 27.7202 9.4165 27.4373V25.354C9.4165 25.071 9.17843 24.833 8.89567 24.833H6.81234Z" fill="#292D32"/>
<path fill-rule="evenodd" clip-rule="evenodd" d="M41.1038 24.833C40.8211 24.833 40.583 25.071 40.583 25.354V27.4373C40.583 27.7202 40.821 27.9581 41.1038 27.9581H43.1872C43.4701 27.9581 43.708 27.7202 43.708 27.4373V25.354C43.708 25.071 43.4699 24.833 43.1872 24.833H41.1038ZM37.458 25.354C37.458 23.3453 39.0949 21.708 41.1038 21.708H43.1872C45.1961 21.708 46.833 23.3453 46.833 25.354V27.4373C46.833 29.4461 45.196 31.0831 43.1872 31.0831H41.1038C39.0951 31.0831 37.458 29.4461 37.458 27.4373V25.354Z" fill="#292D32"/>
<path fill-rule="evenodd" clip-rule="evenodd" d="M23.4684 7.23338C23.5696 8.09037 22.9569 8.86715 22.0999 8.96837C14.9355 9.81456 9.375 15.8889 9.375 23.2708C9.375 24.1337 8.67544 24.8333 7.8125 24.8333C6.94956 24.8333 6.25 24.1337 6.25 23.2708C6.25 14.2777 13.0229 6.89375 21.7334 5.86494C22.5904 5.76372 23.3672 6.37639 23.4684 7.23338Z" fill="#292D32"/>
<path fill-rule="evenodd" clip-rule="evenodd" d="M26.616 7.22437C26.7222 6.36799 27.5026 5.75984 28.359 5.86604C37.0231 6.94049 43.75 14.3012 43.75 23.2708C43.75 24.1337 43.0504 24.8333 42.1875 24.8333C41.3245 24.8333 40.625 24.1337 40.625 23.2708C40.625 15.907 35.1019 9.85118 27.9744 8.96729C27.118 8.86109 26.5098 8.08076 26.616 7.22437Z" fill="#292D32"/>
</svg>
