<svg width="50" height="50" viewBox="0 0 50 50" fill="none" xmlns="http://www.w3.org/2000/svg">
<path fill-rule="evenodd" clip-rule="evenodd" d="M24.3536 4.62415C25.7917 3.18611 27.8218 2.604 30.146 2.604H38.4793C40.8035 2.604 42.8336 3.18611 44.2717 4.62415C45.7097 6.06219 46.2918 8.09232 46.2918 10.4165V39.5832C46.2918 41.9074 45.7097 43.9375 44.2717 45.3755C42.8336 46.8136 40.8035 47.3957 38.4793 47.3957H30.146C27.8218 47.3957 25.7917 46.8136 24.3536 45.3755C22.9156 43.9375 22.3335 41.9074 22.3335 39.5832V10.4165C22.3335 8.09232 22.9156 6.06219 24.3536 4.62415ZM26.5634 6.83386C25.9181 7.47915 25.4585 8.57402 25.4585 10.4165V39.5832C25.4585 41.4257 25.9181 42.5205 26.5634 43.1658C27.2086 43.8111 28.3035 44.2707 30.146 44.2707H38.4793C40.3218 44.2707 41.4167 43.8111 42.062 43.1658C42.7073 42.5205 43.1668 41.4257 43.1668 39.5832V10.4165C43.1668 8.57402 42.7073 7.47915 42.062 6.83386C41.4167 6.18857 40.3218 5.729 38.4793 5.729H30.146C28.3035 5.729 27.2086 6.18857 26.5634 6.83386Z" fill="#292D32"/>
<path fill-rule="evenodd" clip-rule="evenodd" d="M22.3335 12.5C22.3335 11.6371 23.0331 10.9375 23.896 10.9375H34.3127C35.1756 10.9375 35.8752 11.6371 35.8752 12.5C35.8752 13.3629 35.1756 14.0625 34.3127 14.0625H23.896C23.0331 14.0625 22.3335 13.3629 22.3335 12.5Z" fill="#292D32"/>
<path fill-rule="evenodd" clip-rule="evenodd" d="M22.3335 37.5C22.3335 36.6371 23.0331 35.9375 23.896 35.9375H32.2293C33.0923 35.9375 33.7918 36.6371 33.7918 37.5C33.7918 38.3629 33.0923 39.0625 32.2293 39.0625H23.896C23.0331 39.0625 22.3335 38.3629 22.3335 37.5Z" fill="#292D32"/>
<path fill-rule="evenodd" clip-rule="evenodd" d="M22.3336 29.0469C22.3422 28.184 23.0487 27.4915 23.9116 27.5001L34.3283 27.6042C35.1912 27.6129 35.8837 28.3194 35.8751 29.1823C35.8665 30.0452 35.1599 30.7377 34.297 30.7291L23.8804 30.6249C23.0175 30.6163 22.3249 29.9098 22.3336 29.0469Z" fill="#292D32"/>
<path fill-rule="evenodd" clip-rule="evenodd" d="M22.3335 20.833C22.3335 19.9701 23.0331 19.2705 23.896 19.2705H30.146C31.0089 19.2705 31.7085 19.9701 31.7085 20.833C31.7085 21.696 31.0089 22.3955 30.146 22.3955H23.896C23.0331 22.3955 22.3335 21.696 22.3335 20.833Z" fill="#292D32"/>
<path fill-rule="evenodd" clip-rule="evenodd" d="M3.7085 10.3123C3.7085 6.07096 7.18232 2.604 11.4377 2.604C15.6756 2.604 19.146 6.07439 19.146 10.3123V37.3123C19.146 37.9685 19.0131 38.7045 18.8314 39.36C18.6492 40.017 18.3848 40.7124 18.0544 41.2727L18.0467 41.2858L16.3407 44.115C16.3403 44.1157 16.3399 44.1164 16.3394 44.1172C15.1774 46.0567 13.4419 47.328 11.4272 47.328C9.41259 47.328 7.67711 46.0568 6.51512 44.1173C6.51466 44.1165 6.5142 44.1157 6.51374 44.115L4.80005 41.2728C4.4696 40.7125 4.20529 40.017 4.02312 39.36C3.84136 38.7045 3.7085 37.9685 3.7085 37.3123V10.3123ZM11.4377 5.729C8.90133 5.729 6.8335 7.80372 6.8335 10.3123V37.3123C6.8335 37.5937 6.89855 38.0347 7.0345 38.5251C7.16903 39.0103 7.34059 39.4269 7.48856 39.6796L9.19492 42.5097C9.99125 43.8398 10.8489 44.203 11.4272 44.203C12.0056 44.203 12.8632 43.8398 13.6596 42.5097L13.6621 42.5055L15.366 39.6796C15.5139 39.4268 15.6855 39.0102 15.82 38.5251C15.9559 38.0347 16.021 37.5937 16.021 37.3123V10.3123C16.021 7.80028 13.9497 5.729 11.4377 5.729Z" fill="#292D32"/>
<path fill-rule="evenodd" clip-rule="evenodd" d="M3.7085 14.583C3.7085 13.7201 4.40805 13.0205 5.271 13.0205H17.5835C18.4464 13.0205 19.146 13.7201 19.146 14.583C19.146 15.446 18.4464 16.1455 17.5835 16.1455H5.271C4.40805 16.1455 3.7085 15.446 3.7085 14.583Z" fill="#292D32"/>
</svg>
