<?xml version="1.0" encoding="UTF-8"?>
<svg id="Layer_2" data-name="Layer 2" xmlns="http://www.w3.org/2000/svg" xmlns:xlink="http://www.w3.org/1999/xlink" viewBox="0 0 60 60">
  <defs>
    <style>
      .cls-1 {
        fill: none;
      }

      .cls-2 {
        clip-path: url(#clippath);
      }

      .cls-3 {
        fill: #39bc4b;
      }
    </style>
    <clipPath id="clippath">
      <circle class="cls-1" cx="30" cy="30" r="30"/>
    </clipPath>
  </defs>
  <g id="Layer_1-2" data-name="Layer 1">
    <g class="cls-2">
      <g>
        <path class="cls-3" d="m25.17,27.34c.5-.3.75-.86.75-1.63,0-.87-.33-1.43-1-1.71-.57-.19-1.3-.29-2.19-.29h-4.03v4.09h4.5c.81.01,1.45-.14,1.97-.46Z"/>
        <path class="cls-3" d="m40.32,28.65c-.57-.49-1.29-.74-2.13-.74-.91,0-1.63.26-2.14.79-.5.53-.82,1.23-.96,2.12h6.18c-.05-.95-.38-1.66-.94-2.17Z"/>
        <path class="cls-3" d="m55.31,0H4.69C2.1,0,0,2.1,0,4.69v50.62c0,2.59,2.1,4.69,4.69,4.69h50.63c2.59,0,4.69-2.1,4.69-4.69V4.69c0-2.59-2.1-4.69-4.69-4.69Zm-21.14,21.36h7.95v2.31h-7.95v-2.31h0Zm-4.79,15.04c-.35.57-.79,1.07-1.31,1.45-.59.46-1.29.76-2.1.94-.81.16-1.68.25-2.62.25h-8.34v-18.54h8.96c2.26.04,3.87.69,4.8,1.98.56.79.84,1.73.84,2.84s-.28,2.04-.86,2.73c-.32.39-.8.74-1.42,1.05.95.35,1.66.89,2.14,1.64s.73,1.65.73,2.72-.28,2.06-.83,2.94Zm15.62-3.21h-9.98c.06,1.37.53,2.34,1.43,2.89.55.34,1.21.52,1.98.52s1.48-.21,1.99-.63c.28-.22.53-.54.74-.95h3.66c-.09.81-.54,1.64-1.32,2.48-1.23,1.34-2.94,2-5.16,2-1.83,0-3.43-.56-4.83-1.69-1.39-1.13-2.1-2.95-2.1-5.48,0-2.38.63-4.2,1.89-5.46,1.27-1.27,2.89-1.9,4.9-1.9,1.2,0,2.27.21,3.22.64.96.42,1.75,1.1,2.37,2.03.56.81.93,1.76,1.09,2.84.11.62.14,1.52.13,2.71Z"/>
        <path class="cls-3" d="m25.11,31.18c-.45-.2-1.05-.3-1.85-.32h-4.57v4.95h4.51c.81,0,1.43-.11,1.88-.33.82-.41,1.22-1.17,1.22-2.31,0-.96-.4-1.63-1.18-1.99Z"/>
      </g>
    </g>
  </g>
</svg>