<?xml version="1.0" encoding="UTF-8"?>
<svg id="Layer_2" data-name="Layer 2" xmlns="http://www.w3.org/2000/svg" xmlns:xlink="http://www.w3.org/1999/xlink" viewBox="0 0 60 60">
  <defs>
    <style>
      .cls-1 {
        fill: none;
      }

      .cls-2 {
        clip-path: url(#clippath);
      }

      .cls-3 {
        fill: #e7b73e;
      }
    </style>
    <clipPath id="clippath">
      <circle class="cls-1" cx="30" cy="30" r="30"/>
    </clipPath>
  </defs>
  <g id="Layer_1-2" data-name="Layer 1">
    <g class="cls-2">
      <g>
        <path class="cls-3" d="M25.1719,27.3398c.5039-.3047,.75-.8555,.75-1.6289,0-.8672-.3281-1.4297-.9961-1.7109-.5742-.1875-1.3008-.293-2.1914-.293h-4.0312v4.0898h4.5c.8086,.0117,1.4531-.1406,1.9688-.457Z"/>
        <path class="cls-3" d="M40.3242,28.6523c-.5742-.4922-1.2891-.7383-2.1328-.7383-.9141,0-1.6289,.2578-2.1445,.7852-.5039,.5273-.8203,1.2305-.9609,2.1211h6.1758c-.0469-.9492-.375-1.6641-.9375-2.168Z"/>
        <path class="cls-3" d="M55.3125,0H4.6875C2.0977,0,0,2.0977,0,4.6875V55.3125c0,2.5898,2.0977,4.6875,4.6875,4.6875H55.3125c2.5898,0,4.6875-2.0977,4.6875-4.6875V4.6875c0-2.5898-2.0977-4.6875-4.6875-4.6875Zm-21.1406,21.3633h7.9453v2.3086h-7.9453v-2.3086h0Zm-4.793,15.0352c-.3516,.5742-.7852,1.0664-1.3125,1.4531-.5859,.457-1.2891,.7617-2.0977,.9375-.8086,.1641-1.6758,.2461-2.625,.2461H15V20.4961h8.9648c2.2617,.0352,3.8672,.6914,4.8047,1.9805,.5625,.7852,.8437,1.7344,.8437,2.8359,0,1.125-.2812,2.0391-.8555,2.7305-.3164,.3867-.7969,.7383-1.418,1.0547,.9492,.3516,1.6641,.8906,2.1445,1.6406s.7266,1.6523,.7266,2.7188c0,1.0781-.2812,2.0625-.832,2.9414Zm15.6211-3.2109h-9.9844c.0586,1.3711,.5273,2.3438,1.4297,2.8945,.5508,.3398,1.207,.5156,1.9805,.5156,.8086,0,1.4766-.2109,1.9922-.6328,.2812-.2227,.5273-.5391,.7383-.9492h3.6563c-.0937,.8086-.5391,1.6406-1.3242,2.4844-1.2305,1.3359-2.9414,2.0039-5.1562,2.0039-1.8281,0-3.4336-.5625-4.8281-1.6875-1.3945-1.125-2.0977-2.9531-2.0977-5.4844,0-2.3789,.6328-4.1953,1.8867-5.4609,1.2656-1.2656,2.8945-1.8984,4.8984-1.8984,1.1953,0,2.2734,.2109,3.2227,.6445,.9609,.4219,1.7461,1.1016,2.3672,2.0273,.5625,.8086,.9258,1.7578,1.0898,2.8359,.1055,.6211,.1406,1.5234,.1289,2.707Z"/>
        <path class="cls-3" d="M25.1133,31.1836c-.4453-.1992-1.0547-.3047-1.8516-.3164h-4.5703v4.9453h4.5117c.8086,0,1.4297-.1055,1.875-.3281,.8203-.4102,1.2187-1.1719,1.2187-2.3086,0-.9609-.3984-1.6289-1.1836-1.9922Z"/>
      </g>
    </g>
  </g>
</svg>