<?xml version="1.0" encoding="UTF-8"?>
<svg id="Layer_2" data-name="Layer 2" xmlns="http://www.w3.org/2000/svg" xmlns:xlink="http://www.w3.org/1999/xlink" viewBox="0 0 60 60">
  <defs>
    <style>
      .cls-1 {
        fill: none;
      }

      .cls-2 {
        clip-path: url(#clippath);
      }

      .cls-3 {
        fill: #e7b73e;
      }
    </style>
    <clipPath id="clippath">
      <circle class="cls-1" cx="30" cy="30" r="30"/>
    </clipPath>
  </defs>
  <g id="Layer_1-2" data-name="Layer 1">
    <g class="cls-2">
      <g>
        <path class="cls-3" d="M22.0195,40.0195c-.0469-.0352-.1055-.0937-.1758-.1406,.0586,.0469,.1172,.0938,.1758,.1406Z"/>
        <path class="cls-3" d="M30.8906,30.0937c.1641-.0586,.3398-.1055,.5039-.1523-.3164-.7266-.668-1.4648-1.043-2.1797-6.5977,1.9688-12.9258,1.8281-13.1484,1.8281,0,.1289-.0117,.2695-.0117,.3984,0,3.293,1.2422,6.293,3.2813,8.5664v-.0117s3.5039-6.2109,10.418-8.4492Z"/>
        <path class="cls-3" d="M29.2852,25.793c-2.2148-3.9375-4.582-7.1484-4.7578-7.3828-3.5742,1.6875-6.2344,4.9805-7.0664,8.9414,.3398,.0117,5.6836,.082,11.8242-1.5586Z"/>
        <path class="cls-3" d="M38.4609,20.3906c-2.2617-1.9922-5.2148-3.1992-8.4609-3.1992-1.043,0-2.0508,.1289-3.0234,.3633,.1875,.2578,2.6016,3.4453,4.793,7.4766,4.8281-1.8164,6.6562-4.5938,6.6914-4.6406Z"/>
        <path class="cls-3" d="M26.9297,17.5547c-.0117,0-.0234,.0117-.0469,.0117,.0352,0,.0469,0,.0469-.0117Z"/>
        <path class="cls-3" d="M32.1797,32.0977c-7.4766,2.6016-9.9727,7.8281-10.0547,8.0039,2.1797,1.6992,4.9102,2.707,7.875,2.707,1.7695,0,3.4688-.3633,5.0039-1.0195-.1875-1.125-.9375-5.0391-2.7305-9.7266-.0352,.0117-.0703,.0234-.0937,.0352Z"/>
        <path class="cls-3" d="M22.125,40.1016h0q-.0117-.0117-.0234-.0234c.0117,.0117,.0234,.0234,.0234,.0234Z"/>
        <path class="cls-3" d="M32.7539,26.9297c.293,.6094,.5859,1.2305,.8555,1.8633,.0938,.2227,.1875,.4453,.2812,.6563,4.4062-.5508,8.7422,.375,8.918,.4219-.0352-3.0352-1.1133-5.8242-2.918-8.0039-.0234,.0352-2.0742,3-7.1367,5.0625Z"/>
        <path class="cls-3" d="M55.3125,0H4.6875C2.0977,0,0,2.0977,0,4.6875V55.3125c0,2.5898,2.0977,4.6875,4.6875,4.6875H55.3125c2.5898,0,4.6875-2.0977,4.6875-4.6875V4.6875c0-2.5898-2.0977-4.6875-4.6875-4.6875Zm-10.6172,33.0234c-.1992,.9609-.4922,1.9102-.8789,2.8125-.375,.8906-.8437,1.7461-1.3828,2.5547-.5391,.7969-1.1484,1.5352-1.8281,2.2148s-1.4297,1.2891-2.2148,1.8281c-.7969,.5391-1.6641,1.0078-2.543,1.3828-.9023,.3867-1.8516,.6797-2.8242,.8789-.9844,.1992-2.0039,.3047-3.0234,.3047s-2.0391-.1055-3.0234-.3047c-.9609-.1992-1.9102-.4922-2.8125-.8789-.8906-.375-1.7461-.8438-2.543-1.3828s-1.5352-1.1484-2.2148-1.8281c-.6797-.6797-1.2891-1.4297-1.8281-2.2148-.5391-.7969-1.0078-1.6641-1.3828-2.5547-.3867-.9023-.6797-1.8516-.8789-2.8125-.1992-.9844-.3047-2.0039-.3047-3.0234s.1055-2.0391,.3047-3.0234c.1992-.9609,.4922-1.9102,.8789-2.8242,.375-.8906,.8437-1.7461,1.3828-2.543,.5391-.7969,1.1484-1.5352,1.8281-2.2148s1.4297-1.3008,2.2148-1.8281c.7969-.5391,1.6641-1.0078,2.543-1.3828,.9023-.3867,1.8516-.6797,2.8125-.8789,.9844-.1992,2.0039-.3047,3.0234-.3047s2.0273,.1055,3.0234,.3047c.9609,.1992,1.9102,.4922,2.8242,.8789,.8906,.375,1.7461,.8438,2.543,1.3828,.7969,.5391,1.5352,1.1484,2.2148,1.8281,.6797,.6797,1.2891,1.4297,1.8281,2.2148,.5391,.7969,1.0078,1.6523,1.3828,2.543,.3867,.9023,.6797,1.8516,.8789,2.8242,.1992,.9844,.3047,2.0039,.3047,3.0234s-.1055,2.0391-.3047,3.0234Z"/>
        <path class="cls-3" d="M34.6641,31.4766c1.6758,4.6172,2.3672,8.3789,2.4961,9.1523,2.8711-1.9453,4.9219-5.0156,5.4961-8.5898-.2695-.0938-3.8555-1.2305-7.9922-.5625Z"/>
      </g>
    </g>
  </g>
</svg>