<?xml version="1.0" encoding="UTF-8"?>
<svg id="Layer_2" data-name="Layer 2" xmlns="http://www.w3.org/2000/svg" xmlns:xlink="http://www.w3.org/1999/xlink" viewBox="0 0 60 60">
  <defs>
    <style>
      .cls-1 {
        fill: none;
      }

      .cls-2 {
        clip-path: url(#clippath);
      }

      .cls-3 {
        fill: #dfb755;
      }

      .cls-4 {
        fill: #39bc4b;
      }
    </style>
    <clipPath id="clippath">
      <circle class="cls-1" cx="30" cy="30" r="30"/>
    </clipPath>
  </defs>
  <g id="Layer_1-2" data-name="Layer 1">
    <g class="cls-2">
      <g>
        <path class="cls-3" d="m22.02,40.02s-.11-.09-.18-.14c.06.05.12.09.18.14Z"/>
        <path class="cls-4" d="m30.89,30.09c.16-.06.34-.11.5-.15-.32-.73-.67-1.46-1.04-2.18-6.6,1.97-12.93,1.83-13.15,1.83,0,.13-.01.27-.01.4,0,3.29,1.24,6.29,3.28,8.57h0s3.5-6.22,10.42-8.46Z"/>
        <path class="cls-4" d="m29.29,25.79c-2.21-3.94-4.58-7.15-4.76-7.38-3.57,1.69-6.23,4.98-7.07,8.94.34.01,5.68.08,11.82-1.56Z"/>
        <path class="cls-4" d="m38.46,20.39c-2.26-1.99-5.21-3.2-8.46-3.2-1.04,0-2.05.13-3.02.36.19.26,2.6,3.45,4.79,7.48,4.83-1.82,6.66-4.59,6.69-4.64Z"/>
        <path class="cls-3" d="m26.93,17.55s-.02.01-.05.01c.04,0,.05,0,.05-.01Z"/>
        <path class="cls-4" d="m32.18,32.1c-7.48,2.6-9.97,7.83-10.05,8,2.18,1.7,4.91,2.71,7.87,2.71,1.77,0,3.47-.36,5-1.02-.19-1.13-.94-5.04-2.73-9.73-.04.01-.07.02-.09.04Z"/>
        <path class="cls-3" d="m22.12,40.1h0s-.01-.01-.02-.02c.01.01.02.02.02.02Z"/>
        <path class="cls-4" d="m32.75,26.93c.29.61.59,1.23.86,1.86.09.22.19.45.28.66,4.41-.55,8.74.38,8.92.42-.04-3.04-1.11-5.82-2.92-8-.02.04-2.07,3-7.14,5.06Z"/>
        <path class="cls-4" d="m55.31,0H4.69C2.1,0,0,2.1,0,4.69v50.62c0,2.59,2.1,4.69,4.69,4.69h50.62c2.59,0,4.69-2.1,4.69-4.69V4.69c0-2.59-2.1-4.69-4.69-4.69Zm-10.62,33.02c-.2.96-.49,1.91-.88,2.81-.37.89-.84,1.75-1.38,2.55-.54.8-1.15,1.54-1.83,2.21s-1.43,1.29-2.21,1.83c-.8.54-1.66,1.01-2.54,1.38-.9.39-1.85.68-2.82.88-.98.2-2,.3-3.02.3s-2.04-.11-3.02-.3c-.96-.2-1.91-.49-2.81-.88-.89-.38-1.75-.84-2.54-1.38s-1.54-1.15-2.21-1.83c-.68-.68-1.29-1.43-1.83-2.21-.54-.8-1.01-1.66-1.38-2.55-.39-.9-.68-1.85-.88-2.81-.2-.98-.3-2-.3-3.02s.11-2.04.3-3.02c.2-.96.49-1.91.88-2.82.38-.89.84-1.75,1.38-2.54.54-.8,1.15-1.54,1.83-2.21s1.43-1.3,2.21-1.83c.8-.54,1.66-1.01,2.54-1.38.9-.39,1.85-.68,2.81-.88.98-.2,2-.3,3.02-.3s2.03.11,3.02.3c.96.2,1.91.49,2.82.88.89.38,1.75.84,2.54,1.38.8.54,1.54,1.15,2.21,1.83.68.68,1.29,1.43,1.83,2.21.54.8,1.01,1.65,1.38,2.54.39.9.68,1.85.88,2.82.2.98.3,2,.3,3.02s-.11,2.04-.3,3.02Z"/>
        <path class="cls-4" d="m34.66,31.48c1.68,4.62,2.37,8.38,2.5,9.15,2.87-1.95,4.92-5.02,5.5-8.59-.27-.09-3.86-1.23-7.99-.56Z"/>
      </g>
    </g>
  </g>
</svg>