<?xml version="1.0" encoding="UTF-8"?>
<svg id="Layer_2" data-name="Layer 2" xmlns="http://www.w3.org/2000/svg" viewBox="0 0 60 60">
  <defs>
    <style>
      .cls-1 {
        fill: #fff;
      }

      .cls-2 {
        fill: #39bc4b;
      }
    </style>
  </defs>
  <g id="Layer_1-2" data-name="Layer 1">
    <g>
      <circle class="cls-1" cx="30" cy="30" r="22"/>
      <g>
        <path class="cls-2" d="m38.98,24.3l-7.42-5.2c-1.15-.8-3.12-.75-4.22.1l-6.47,5.04c-.71.55-1.38,1.91-1.38,2.8v8.89c0,1.96,1.59,3.56,3.55,3.56h13.9c1.96,0,3.55-1.59,3.55-3.55v-8.74c0-.95-.74-2.37-1.52-2.91Zm-4.48,10.7c0,.83-.67,1.5-1.5,1.5s-1.5-.67-1.5-1.5v-.67h-3v.67c0,.83-.67,1.5-1.5,1.5s-1.5-.67-1.5-1.5v-4.8c0-.83.67-1.5,1.5-1.5s1.5.67,1.5,1.5v1.13h3v-1.13c0-.83.67-1.5,1.5-1.5s1.5.67,1.5,1.5v4.8Z"/>
        <path class="cls-2" d="m30,0C13.43,0,0,13.43,0,30s13.43,30,30,30,30-13.43,30-30S46.57,0,30,0Zm13.5,35.95c0,3.61-2.94,6.55-6.55,6.55h-13.9c-3.61,0-6.55-2.94-6.55-6.56v-8.89c0-1.82,1.09-4.04,2.54-5.17l6.47-5.04h0c2.14-1.67,5.56-1.75,7.78-.19l7.42,5.2c1.59,1.11,2.8,3.42,2.8,5.37v8.74Z"/>
      </g>
    </g>
  </g>
</svg>