<?xml version="1.0" encoding="UTF-8"?>
<svg id="Layer_2" data-name="Layer 2" xmlns="http://www.w3.org/2000/svg" xmlns:xlink="http://www.w3.org/1999/xlink" viewBox="0 0 60 60">
  <defs>
    <style>
      .cls-1 {
        fill: none;
      }

      .cls-2 {
        clip-path: url(#clippath);
      }

      .cls-3 {
        fill: #e7b73e;
      }
    </style>
    <clipPath id="clippath">
      <circle class="cls-1" cx="30" cy="30" r="30"/>
    </clipPath>
  </defs>
  <g id="Layer_1-2" data-name="Layer 1">
    <g class="cls-2">
      <path class="cls-3" d="M55.3125,0H4.6875C2.0977,0,0,2.0977,0,4.6875V55.3125c0,2.5898,2.0977,4.6875,4.6875,4.6875H55.3125c2.5898,0,4.6875-2.0977,4.6875-4.6875V4.6875c0-2.5898-2.0977-4.6875-4.6875-4.6875ZM21.6094,42.5508h-5.8477V23.8359h5.8477v18.7148Zm-3.082-21.0586h-.0469c-2.1211,0-3.4922-1.4297-3.4922-3.2461,0-1.8516,1.418-3.2461,3.5742-3.2461s3.4805,1.3945,3.5273,3.2461c.0117,1.8047-1.3594,3.2461-3.5625,3.2461Zm26.4727,21.0586h-6.6328v-9.6797c0-2.5313-1.0313-4.2656-3.3164-4.2656-1.7461,0-2.7187,1.1719-3.1641,2.2969-.1641,.3984-.1406,.9609-.1406,1.5352v10.1133h-6.5742s.082-17.1562,0-18.7148h6.5742v2.9414c.3867-1.2891,2.4844-3.1172,5.8359-3.1172,4.1602,0,7.418,2.6953,7.418,8.4844v10.4062Z"/>
    </g>
  </g>
</svg>