<?xml version="1.0" encoding="UTF-8"?>
<svg id="Layer_2" data-name="Layer 2" xmlns="http://www.w3.org/2000/svg" xmlns:xlink="http://www.w3.org/1999/xlink" viewBox="0 0 60 60">
  <defs>
    <style>
      .cls-1 {
        fill: none;
      }

      .cls-2 {
        clip-path: url(#clippath);
      }

      .cls-3 {
        fill: #39bc4b;
      }
    </style>
    <clipPath id="clippath">
      <circle class="cls-1" cx="30" cy="30" r="30"/>
    </clipPath>
  </defs>
  <g id="Layer_1-2" data-name="Layer 1">
    <g class="cls-2">
      <path class="cls-3" d="m55.31,0H4.69C2.1,0,0,2.1,0,4.69v50.62c0,2.59,2.1,4.69,4.69,4.69h50.62c2.59,0,4.69-2.1,4.69-4.69V4.69c0-2.59-2.1-4.69-4.69-4.69ZM21.61,42.55h-5.85v-18.71h5.85v18.71Zm-3.08-21.06h-.05c-2.12,0-3.49-1.43-3.49-3.25s1.42-3.25,3.57-3.25,3.48,1.39,3.53,3.25c.01,1.8-1.36,3.25-3.56,3.25Zm26.47,21.06h-6.63v-9.68c0-2.53-1.03-4.27-3.32-4.27-1.75,0-2.72,1.17-3.16,2.3-.16.4-.14.96-.14,1.54v10.11h-6.57s.08-17.16,0-18.71h6.57v2.94c.39-1.29,2.48-3.12,5.84-3.12,4.16,0,7.42,2.7,7.42,8.48v10.41Z"/>
    </g>
  </g>
</svg>